# xmcd
#
# Track frame offsets: 
#        150
#        23560
#        44355
#        68292
#        89297
#        107355
#        124692
#        145290
#        159667
#        174830
#        187810
#        202697
#        218317
#        230640
#        257620
#        273975
#        286307
#
# Disc length: 3989 seconds
#
# Revision: 5
# Processed by: cddbd v1.5.1PL0 Copyright (c) Steve Scherf et al.
# Submitted via: ExactAudioCopy v0.95b3
#
DISCID=d30f9311
DTITLE=Stefan Grossman - Shake That Thing
DYEAR=1998
DGENRE=Blues
TTITLE0=Yazoo Strut
TTITLE1=Monkey Wrench Rag
TTITLE2=Spider Web Blues
TTITLE3=Crossed Canoes
TTITLE4=Death Come Creeping
TTITLE5=Welsh Cob Blues
TTITLE6=Square and Compass
TTITLE7=Shake That Thing
TTITLE8=F Rag
TTITLE9=Candyman
TTITLE10=C.C. Rider
TTITLE11=Goose Tracks
TTITLE12=House On The Hill
TTITLE13=All My Friends Are Gone
TTITLE14=Drunkard's Path
TTITLE15=Kaleidoscope Rag
TTITLE16=Delia
EXTD=
EXTT0=
EXTT1=
EXTT2=
EXTT3=
EXTT4=
EXTT5=
EXTT6=
EXTT7=
EXTT8=
EXTT9=
EXTT10=
EXTT11=
EXTT12=
EXTT13=
EXTT14=
EXTT15=
EXTT16=
PLAYORDER=
